# xmcd CD database file
#
# Track frame offsets:
#	150
#	15675
#	34903
#	51325
#	69625
#	87208
#	105950
#	137046
#	138587
#	157413
#	174663
#	193276
#
# Disc length: 2840 seconds
#
# Revision: 1
# Processed by: cddbd v1.5.2PL0 Copyright (c) Steve Scherf et al.
# Submitted via: CDex 1.70beta2
#
DISCID=b00b160c
DTITLE=Various Artist - Song toO - Live Party Edition
DYEAR=2007
DGENRE=Jazz
TTITLE0=Bangkok Night Life - Jazz Cafe
TTITLE1=โลกส่วนตัว - ปลานิลเต็มบ้าน
TTITLE2=ก็เกิดมาเป็นแบบนี้ - Sub Stance
TTITLE3=อย่ายิ้ม - Noodle Formula
TTITLE4=ข้างทาง - KiJJaZ Monotone
TTITLE5=Mad 4U PratoO.com - Real RRJ
TTITLE6=North East All Stars - Hiphop Culture Club
TTITLE7=First Love - Apure
TTITLE8=รักนิรันดร์ - P-Square
TTITLE9=ความทรงจำ - 5 Steps 100
TTITLE10=Perfect Day - Tomorrow
TTITLE11=สุดท้าย - Sign of Silhouette
EXTD=YEAR: 2007
EXTT0=
EXTT1=
EXTT2=
EXTT3=
EXTT4=
EXTT5=
EXTT6=
EXTT7=
EXTT8=
EXTT9=
EXTT10=
EXTT11=
PLAYORDER=
